
<svg width="25" height="24" viewBox="0 0 25 24" fill="none" xmlns="http://www.w3.org/2000/svg">
<path d="M12.5 0C15.7604 0 16.1672 0.0119999 17.4464 0.0719999C18.7244 0.132 19.5944 0.3324 20.36 0.63C21.152 0.9348 21.8192 1.3476 22.4864 2.0136C23.0966 2.61348 23.5687 3.33911 23.87 4.14C24.1664 4.9044 24.368 5.7756 24.428 7.0536C24.4844 8.3328 24.5 8.7396 24.5 12C24.5 15.2604 24.488 15.6672 24.428 16.9464C24.368 18.2244 24.1664 19.0944 23.87 19.86C23.5696 20.6613 23.0973 21.3871 22.4864 21.9864C21.8864 22.5964 21.1608 23.0685 20.36 23.37C19.5956 23.6664 18.7244 23.868 17.4464 23.928C16.1672 23.9844 15.7604 24 12.5 24C9.2396 24 8.8328 23.988 7.5536 23.928C6.2756 23.868 5.4056 23.6664 4.64 23.37C3.83879 23.0694 3.11303 22.5971 2.5136 21.9864C1.90329 21.3866 1.43112 20.661 1.13 19.86C0.8324 19.0956 0.632 18.2244 0.572 16.9464C0.5156 15.6672 0.5 15.2604 0.5 12C0.5 8.7396 0.512 8.3328 0.572 7.0536C0.632 5.7744 0.8324 4.9056 1.13 4.14C1.43028 3.33862 1.90256 2.61279 2.5136 2.0136C3.11321 1.40308 3.83891 0.930875 4.64 0.63C5.4056 0.3324 6.2744 0.132 7.5536 0.0719999C8.8328 0.0155999 9.2396 0 12.5 0ZM12.5 6C10.9087 6 9.38258 6.63214 8.25736 7.75736C7.13214 8.88258 6.5 10.4087 6.5 12C6.5 13.5913 7.13214 15.1174 8.25736 16.2426C9.38258 17.3679 10.9087 18 12.5 18C14.0913 18 15.6174 17.3679 16.7426 16.2426C17.8679 15.1174 18.5 13.5913 18.5 12C18.5 10.4087 17.8679 8.88258 16.7426 7.75736C15.6174 6.63214 14.0913 6 12.5 6ZM20.3 5.7C20.3 5.30218 20.142 4.92064 19.8607 4.63934C19.5794 4.35804 19.1978 4.2 18.8 4.2C18.4022 4.2 18.0206 4.35804 17.7393 4.63934C17.458 4.92064 17.3 5.30218 17.3 5.7C17.3 6.09783 17.458 6.47936 17.7393 6.76066C18.0206 7.04197 18.4022 7.2 18.8 7.2C19.1978 7.2 19.5794 7.04197 19.8607 6.76066C20.142 6.47936 20.3 6.09783 20.3 5.7ZM12.5 8.4C13.4548 8.4 14.3705 8.77928 15.0456 9.45442C15.7207 10.1295 16.1 11.0452 16.1 12C16.1 12.9548 15.7207 13.8705 15.0456 14.5456C14.3705 15.2207 13.4548 15.6 12.5 15.6C11.5452 15.6 10.6295 15.2207 9.95442 14.5456C9.27928 13.8705 8.9 12.9548 8.9 12C8.9 11.0452 9.27928 10.1295 9.95442 9.45442C10.6295 8.77928 11.5452 8.4 12.5 8.4Z" fill="#FC6D1D"/>
</svg>
