<svg width="23" height="18" viewBox="0 0 23 18" fill="none" xmlns="http://www.w3.org/2000/svg">
<path d="M21.3215 0.201386L0.896948 7.45993C0.896948 7.45993 -0.0720161 7.75719 0.00428028 8.31022C0.0805766 8.86325 0.866429 9.11903 0.866429 9.11903L5.68836 10.5915C5.97828 11.4556 7.21428 15.1263 7.48132 15.8937C7.74836 16.661 8.06117 17.0758 8.44266 17.0758C8.77073 17.0758 9.11407 16.8615 9.25903 16.744L12.2651 14.2553L17.438 17.85C18.8342 18.4031 19.3454 17.2486 19.3454 17.2486L23 0.636899C23 -0.469166 21.3215 0.201386 21.3215 0.201386ZM18.7808 3.98274C18.3993 4.30765 9.09118 11.8842 9.09118 11.8842L9.07592 11.9879L9.05303 11.9741L8.54184 16.0665C8.48843 15.9697 8.43503 15.8315 8.36636 15.6448C8.09932 14.8844 6.87858 11.2482 6.5734 10.3634L18.3383 3.59562C18.3383 3.59562 19.0478 3.20159 19.025 3.59562C19.0326 3.58871 19.1623 3.65784 18.7808 3.98274Z" fill="black"/>
</svg>
