<svg width="23" height="25" viewBox="0 0 23 25" fill="none" xmlns="http://www.w3.org/2000/svg">
<path d="M20.404 2.38079C19.7998 1.82386 17.3649 0.0431732 11.9418 0.0175254C11.9418 0.0175254 5.54322 -0.370856 2.42403 2.50903C0.687907 4.25674 0.0764427 6.8142 0.0145683 9.9872C-0.0509457 13.1602 -0.134657 19.0995 5.55778 20.7117H5.56142L5.55778 23.1702C5.55778 23.1702 5.52138 24.1668 6.17288 24.3683C6.95905 24.6138 7.42129 23.859 8.1747 23.0419C8.58598 22.5949 9.15741 21.9354 9.58689 21.4335C13.4777 21.7632 16.4731 21.0084 16.8116 20.8985C17.5978 20.642 22.0455 20.0668 22.7661 14.1275C23.5123 8.00499 22.4058 4.1285 20.404 2.38079ZM21.0628 13.6878C20.4513 18.6488 16.8444 18.9639 16.182 19.1764C15.8981 19.268 13.2702 19.9276 9.96542 19.7077C9.96542 19.7077 7.50136 22.6975 6.73339 23.478C6.61328 23.5989 6.47134 23.6502 6.37671 23.6245C6.24568 23.5915 6.20928 23.434 6.20928 23.2032C6.21292 22.8734 6.23112 19.1178 6.23112 19.1178C6.22748 19.1178 6.22748 19.1178 6.23112 19.1178C1.41948 17.7731 1.69973 12.7132 1.75433 10.0641C1.80892 7.41509 2.30392 5.24602 3.7707 3.78775C6.40946 1.38419 11.8435 1.74326 11.8435 1.74326C16.4331 1.76524 18.6315 3.15389 19.141 3.61921C20.8335 5.08114 21.6961 8.5729 21.0628 13.6878Z" fill="black"/>
<path fill-rule="evenodd" clip-rule="evenodd" d="M12.0322 7.92265C12.0411 7.75235 12.1856 7.62162 12.3548 7.63067C12.9883 7.66455 13.5156 7.85701 13.891 8.24726C14.2651 8.63616 14.4479 9.17963 14.4793 9.83306C14.4874 10.0034 14.3569 10.1482 14.1877 10.1564C14.0185 10.1646 13.8747 10.0332 13.8665 9.86288C13.8396 9.30353 13.6876 8.92367 13.4502 8.67688C13.2141 8.43143 12.8533 8.27581 12.3222 8.24741C12.153 8.23836 12.0232 8.09296 12.0322 7.92265Z" fill="black"/>
<path fill-rule="evenodd" clip-rule="evenodd" d="M11.5666 6.26105C11.5786 6.09093 11.7253 5.96281 11.8943 5.97489C13.1856 6.06719 14.2225 6.51369 14.9776 7.34184C15.7282 8.16513 16.0826 9.18669 16.0555 10.3863C16.0517 10.5568 15.9112 10.6918 15.7419 10.688C15.5725 10.6841 15.4383 10.5427 15.4422 10.3722C15.466 9.31479 15.158 8.45307 14.5256 7.75947C13.8976 7.07074 13.02 6.67452 11.8509 6.59095C11.6819 6.57887 11.5546 6.43117 11.5666 6.26105Z" fill="black"/>
<path fill-rule="evenodd" clip-rule="evenodd" d="M11.0272 4.67979C11.0283 4.50924 11.1665 4.37188 11.3359 4.37297C13.1167 4.38443 14.6248 4.98372 15.8319 6.16803C17.0487 7.36571 17.6529 8.99024 17.668 11.0145C17.6692 11.185 17.5329 11.3243 17.3635 11.3256C17.1941 11.3268 17.0557 11.1896 17.0545 11.0191C17.0404 9.12297 16.4796 7.66946 15.4035 6.61016C14.3177 5.54489 12.9651 5.00108 11.332 4.99056C11.1626 4.98947 11.0261 4.85033 11.0272 4.67979Z" fill="black"/>
<path d="M12.4004 13.9846C12.4004 13.9846 12.8335 14.0212 13.0628 13.7318L13.5141 13.1602C13.7325 12.8744 14.2602 12.6949 14.7771 12.9843C15.0646 13.1492 15.5814 13.468 15.9017 13.7061C16.2438 13.9589 16.9463 14.5488 16.9463 14.5488C17.2811 14.831 17.3576 15.2487 17.1319 15.6883C17.1319 15.692 17.1283 15.6957 17.1283 15.6957C16.8953 16.1097 16.5823 16.5017 16.1856 16.8645C16.182 16.8681 16.182 16.8681 16.1783 16.8718C15.8544 17.1429 15.5341 17.3005 15.2211 17.3371C15.1847 17.3445 15.1374 17.3481 15.0828 17.3445C14.9445 17.3445 14.8098 17.3261 14.6751 17.2822L14.6642 17.2675C14.1802 17.1319 13.3758 16.7875 12.0327 16.0437C11.1592 15.5601 10.4349 15.0655 9.82347 14.5745C9.49954 14.318 9.16833 14.0249 8.82984 13.6878C8.81892 13.6768 8.808 13.6658 8.79708 13.6548C8.78617 13.6438 8.77524 13.6329 8.76433 13.6219C8.75341 13.6109 8.74249 13.5999 8.73157 13.5889C8.72065 13.5779 8.70973 13.5669 8.69881 13.5559C8.36396 13.2152 8.07279 12.8817 7.81801 12.5556C7.3303 11.9401 6.83894 11.2073 6.35851 10.3316C5.61965 8.97961 5.27753 8.16987 5.14286 7.68256L5.1283 7.67157C5.08462 7.536 5.06279 7.40043 5.06643 7.2612C5.06279 7.20624 5.06642 7.15861 5.0737 7.12197C5.1101 6.80687 5.26661 6.48444 5.53594 6.15835C5.53958 6.15468 5.53958 6.15468 5.54322 6.15102C5.90355 5.75164 6.28935 5.43654 6.70428 5.20205C6.70791 5.20205 6.71155 5.19838 6.71155 5.19838C7.14831 4.97122 7.56324 5.04816 7.84349 5.38525C7.84713 5.38891 8.42948 6.09239 8.68061 6.43681C8.91719 6.7629 9.23748 7.27952 9.39763 7.56898C9.68516 8.08926 9.50682 8.62054 9.22292 8.84037L8.65514 9.29471C8.3676 9.5292 8.404 9.96155 8.404 9.96155C8.404 9.96155 9.2484 13.1749 12.4004 13.9846Z" fill="black"/>
</svg>
