<svg width="14" height="16" viewBox="0 0 14 16" fill="none" xmlns="http://www.w3.org/2000/svg">
<path d="M7 16C0.466668 12.8711 0 6.84444 0 2.93333C0.388889 2.93333 1.63333 2.73778 3.5 1.95556C5.36667 1.17333 6.61111 0.325926 7 0C7.38889 0.325926 8.63333 1.17333 10.5 1.95556C12.3667 2.73778 13.6111 2.93333 14 2.93333C14 6.84444 13.5333 12.8711 7 16Z" fill="#32B73F"/>
<path d="M9 5.03346C9 6.15651 8.10457 7.06692 7 7.06692C5.89543 7.06692 5 6.15651 5 5.03346C5 3.91041 5.89543 3 7 3C8.10457 3 9 3.91041 9 5.03346Z" fill="white"/>
<path d="M11 10.1171C11 11.3525 8.96368 11.5 7 11.5C5.03632 11.5 3 11.3525 3 10.1171C3 8.88175 5.03632 7.8803 7 7.8803C8.96368 7.8803 11 8.88175 11 10.1171Z" fill="white"/>
</svg>