<svg xmlns="http://www.w3.org/2000/svg" width="20" height="20" viewBox="0 0 20 20" fill="none">
<path d="M19 8.8729C18.7249 6.88944 17.8065 5.05163 16.3862 3.64256C14.966 2.23349 13.1227 1.33134 11.1404 1.07508C9.15803 0.818812 7.14658 1.22265 5.41585 2.22438C3.68513 3.22611 2.33116 4.77016 1.5625 6.61869M1 2.11026L1 6.61869L5.5 6.61869M1 11.1271C1.27513 13.1106 2.19355 14.9484 3.61378 16.3574C5.03402 17.7665 6.87727 18.6687 8.85962 18.9249C10.842 19.1812 12.8534 18.7774 14.5841 17.7756C16.3149 16.7739 17.6688 15.2298 18.4375 13.3813M19 17.8897V13.3813L14.5 13.3813" stroke="#6B6B6B" stroke-width="2" stroke-miterlimit="22.9256" stroke-linejoin="round"/>
</svg>