<svg width="80" height="48" viewBox="0 0 80 48" fill="none" xmlns="http://www.w3.org/2000/svg">
<path d="M36.6755 31.9507H32.5956L35.1455 16.28H39.2258L36.6755 31.9507ZM29.1633 16.28L25.2737 27.0584L24.8135 24.7374L24.8139 24.7383L23.4411 17.691C23.4411 17.691 23.2751 16.28 21.5057 16.28H15.0755L15 16.5454C15 16.5454 16.9664 16.9545 19.2677 18.3365L22.8123 31.9511H27.0632L33.5542 16.28H29.1633ZM61.2538 31.9507H65L61.7337 16.2796H58.4541C56.9396 16.2796 56.5707 17.4474 56.5707 17.4474L50.4858 31.9507H54.7388L55.5894 29.623H60.7759L61.2538 31.9507ZM56.7643 26.4074L58.908 20.5431L60.114 26.4074H56.7643ZM50.8048 20.0485L51.3871 16.6833C51.3871 16.6833 49.5905 16 47.7176 16C45.6929 16 40.8849 16.8849 40.8849 21.1878C40.8849 25.2363 46.5279 25.2866 46.5279 27.4131C46.5279 29.5396 41.4663 29.1585 39.7959 27.8176L39.1893 31.3362C39.1893 31.3362 41.0111 32.2211 43.7944 32.2211C46.5786 32.2211 50.7788 30.7795 50.7788 26.856C50.7788 22.7815 45.0851 22.4022 45.0851 20.6307C45.0855 18.8588 49.0589 19.0864 50.8048 20.0485Z" fill="#6B6B6B"/>
<path d="M24.8139 24.7375L23.4411 17.6903C23.4411 17.6903 23.2751 16.2793 21.5057 16.2793H15.0755L15 16.5446C15 16.5446 18.0906 17.1851 21.0551 19.585C23.8896 21.8787 24.8139 24.7375 24.8139 24.7375Z" fill="#A7A7A7"/>
</svg>
